<?xml version="1.0" standalone="no"?>
<!DOCTYPE svg PUBLIC "-//W3C//DTD SVG 20010904//EN"
 "http://www.w3.org/TR/2001/REC-SVG-20010904/DTD/svg10.dtd">
<svg version="1.0" xmlns="http://www.w3.org/2000/svg"
 width="1068.000000pt" height="1280.000000pt" viewBox="0 0 1068.000000 1280.000000"
 preserveAspectRatio="xMidYMid meet">
<metadata>
Created by potrace 1.15, written by Peter Selinger 2001-2017
</metadata>
<g transform="translate(0.000000,1280.000000) scale(0.100000,-0.100000)"
fill="#000000" stroke="none">
<path d="M3 11593 c5 -1178 11 -1468 42 -2033 33 -587 74 -1014 191 -1960 143
-1161 314 -1924 589 -2625 390 -997 917 -1723 2096 -2890 987 -976 1673 -1575
2291 -1999 l127 -87 120 76 c403 255 758 545 1381 1129 1324 1242 1927 1891
2392 2576 312 459 552 952 742 1525 212 635 346 1291 470 2295 197 1592 224
2062 233 3998 l6 1203 -229 -115 c-1148 -574 -2424 -941 -3789 -1091 -747 -81
-1572 -92 -2335 -29 -1470 120 -2867 502 -4104 1120 l-229 115 6 -1208z m235
1028 c1162 -582 2522 -960 3942 -1095 2187 -209 4441 185 6263 1095 98 49 180
89 182 89 9 0 5 -1438 -5 -2000 -22 -1196 -62 -1747 -221 -3050 -124 -1019
-261 -1698 -469 -2320 -427 -1282 -1033 -2110 -2710 -3705 -757 -720 -1087
-1011 -1440 -1275 -148 -111 -419 -290 -438 -290 -48 0 -633 443 -997 755
-492 422 -1462 1352 -1914 1835 -945 1010 -1410 1775 -1742 2868 -188 622
-303 1248 -438 2392 -138 1170 -170 1643 -191 2815 -10 577 -14 1975 -5 1975
3 0 85 -40 183 -89z"/>
<path d="M683 12102 c23 -21 131 -112 240 -202 110 -89 241 -202 292 -251 l92
-89 117 25 c117 24 293 40 586 53 l155 7 -205 63 c-113 35 -360 121 -550 192
-341 126 -547 194 -687 224 -40 9 -74 16 -77 16 -3 0 13 -17 37 -38z m317
-124 c271 -102 720 -255 799 -273 61 -13 39 -22 -72 -29 -127 -8 -217 -20
-329 -43 l-78 -16 -117 114 c-65 63 -165 152 -223 198 -122 97 -133 107 -105
96 11 -4 67 -25 125 -47z"/>
<path d="M9890 12109 c-152 -39 -313 -94 -670 -227 -162 -61 -387 -139 -500
-174 -134 -41 -195 -64 -175 -65 17 -1 131 -7 255 -13 256 -11 357 -22 484
-52 l88 -20 77 74 c94 92 184 170 366 318 186 152 229 190 207 189 -9 0 -69
-14 -132 -30z m-60 -73 c0 -2 -39 -35 -87 -73 -100 -77 -239 -200 -327 -287
l-58 -58 -77 15 c-122 25 -148 28 -306 41 l-150 12 89 28 c242 75 760 257 867
305 52 23 49 22 49 17z"/>
<path d="M256 11983 c-3 -43 -9 -205 -12 -359 -9 -372 7 -543 78 -871 17 -79
35 -140 39 -136 4 4 21 43 38 86 64 160 142 290 245 403 25 29 46 55 46 58 0
4 -24 39 -54 79 -118 158 -204 337 -301 625 -34 100 -64 184 -67 187 -3 3 -8
-29 -12 -72z m178 -508 c30 -60 84 -154 120 -208 36 -55 66 -101 66 -104 0 -2
-22 -30 -48 -61 -65 -75 -108 -140 -158 -236 -23 -43 -44 -74 -48 -68 -11 19
-54 292 -65 419 -12 132 -15 491 -5 542 6 30 10 24 45 -71 21 -57 63 -152 93
-213z"/>
<path d="M10407 12050 c-3 -8 -32 -91 -63 -185 -92 -278 -183 -465 -300 -622
-30 -40 -54 -75 -54 -79 0 -3 21 -29 46 -58 103 -113 181 -243 245 -403 17
-43 34 -82 38 -86 9 -9 65 239 86 381 32 209 38 343 31 637 -8 299 -17 441
-29 415z m-21 -590 c-5 -246 -18 -391 -52 -565 -24 -124 -21 -123 -65 -35 -41
82 -130 213 -180 265 -16 17 -29 34 -29 38 0 4 29 51 65 104 75 111 167 295
217 430 l33 91 8 -36 c5 -21 6 -152 3 -292z"/>
<path d="M530 12002 c0 -23 93 -290 129 -369 54 -120 182 -343 196 -343 2 0
20 23 41 51 41 56 97 88 152 89 17 0 32 4 32 9 0 17 -97 155 -163 231 -35 41
-95 102 -133 136 -92 81 -254 206 -254 196z m260 -281 c108 -107 200 -217 200
-239 0 -6 -12 -13 -26 -16 -14 -4 -44 -24 -68 -46 l-42 -39 -52 87 c-58 98
-107 203 -146 310 -14 40 -26 75 -26 78 0 16 58 -33 160 -135z"/>
<path d="M10075 11953 c-138 -108 -229 -189 -302 -272 -72 -82 -173 -223 -173
-242 0 -5 15 -9 33 -9 54 -1 110 -33 151 -89 21 -28 39 -51 41 -51 11 0 117
182 171 293 55 113 163 412 153 421 -2 2 -35 -21 -74 -51z m-56 -188 c-33 -92
-114 -256 -166 -337 l-30 -47 -34 35 c-18 19 -48 40 -66 46 -18 7 -33 16 -33
22 0 15 79 116 149 190 75 78 201 189 207 183 3 -2 -10 -44 -27 -92z"/>
<path d="M2077 11470 c-245 -33 -667 -123 -667 -142 0 -4 23 -49 51 -99 115
-204 199 -414 233 -581 19 -90 22 -308 5 -308 -20 0 -161 50 -212 76 -134 68
-285 184 -464 358 l-123 119 -47 -39 c-130 -106 -295 -293 -411 -463 l-57 -83
1 -577 c0 -599 10 -814 55 -1300 102 -1097 340 -2177 699 -3176 312 -866 675
-1509 1165 -2060 345 -389 948 -1003 1250 -1275 255 -229 781 -657 793 -645 2
2 -12 34 -31 71 -62 124 -187 457 -187 500 0 5 25 -30 56 -76 114 -172 239
-305 363 -385 l65 -42 62 42 c55 37 140 70 225 89 24 5 27 12 43 111 33 204
101 414 201 620 65 135 177 315 195 315 15 0 121 -166 179 -280 97 -190 176
-427 213 -634 11 -67 22 -122 23 -124 1 -1 29 -9 61 -17 80 -21 129 -42 194
-85 l56 -37 69 44 c99 64 256 228 340 356 38 58 71 104 73 102 13 -12 -129
-388 -195 -518 -13 -27 -23 -50 -21 -52 12 -12 539 417 794 646 321 288 1021
1007 1324 1359 456 531 825 1214 1132 2095 309 885 524 1848 632 2825 63 565
80 893 81 1546 l0 562 -58 84 c-116 169 -286 360 -413 465 l-44 36 -118 -114
c-181 -177 -319 -283 -467 -360 -79 -40 -212 -86 -222 -75 -12 11 -4 221 11
298 32 165 128 402 242 600 24 42 44 81 44 86 0 18 -405 106 -635 137 -219 31
-262 27 -505 -36 -530 -139 -1213 -233 -2045 -281 -272 -15 -1218 -15 -1490 0
-828 48 -1503 140 -2045 280 -118 30 -242 56 -275 58 -33 2 -122 -6 -198 -16z
m339 -64 c533 -150 1255 -255 2124 -308 273 -17 1327 -17 1600 0 871 54 1574
155 2122 307 l127 36 138 -16 c213 -24 633 -103 655 -124 4 -3 -30 -81 -75
-171 -87 -173 -143 -327 -173 -470 -19 -89 -25 -300 -11 -353 7 -26 10 -27 45
-21 215 37 435 172 724 443 l96 91 88 -82 c102 -97 228 -244 309 -363 l58 -85
5 -332 c8 -577 -25 -1222 -93 -1828 -21 -181 -18 -172 -69 -193 -24 -10 -75
-39 -112 -64 -123 -82 -157 -89 -249 -47 -60 28 -50 27 -222 8 -46 -6 -56 -3
-96 25 -65 45 -148 122 -251 236 -50 55 -96 101 -104 103 -7 2 -50 -23 -95
-56 -106 -77 -137 -92 -186 -92 -63 0 -111 50 -173 179 -28 58 -68 132 -89
163 -21 31 -56 102 -78 157 -21 55 -53 123 -71 151 -35 55 -184 200 -205 200
-7 0 -62 -78 -122 -172 -127 -204 -242 -329 -353 -387 l-66 -34 -58 26 c-75
35 -91 34 -129 -6 -148 -156 -234 -238 -307 -293 -47 -35 -89 -64 -95 -64 -5
0 -39 31 -75 68 -53 55 -75 71 -112 80 -26 7 -55 12 -65 12 -11 0 -47 -37 -90
-93 -95 -122 -103 -129 -208 -172 -49 -20 -153 -70 -230 -110 -165 -87 -290
-137 -400 -160 -114 -24 -269 -24 -382 0 -124 26 -170 16 -383 -85 -91 -44
-186 -84 -211 -90 -43 -11 -50 -10 -110 20 -35 18 -106 57 -158 88 l-94 56
-38 -43 -39 -43 -86 47 c-129 69 -250 150 -308 205 -58 55 -90 70 -145 70 -65
0 -118 60 -160 181 -39 115 -88 179 -136 179 -10 0 -47 -26 -84 -58 -36 -31
-74 -63 -83 -70 -14 -12 -23 -4 -71 61 -58 78 -75 89 -169 107 -47 9 -68 21
-130 74 -40 35 -128 121 -196 192 -197 208 -345 354 -377 375 -36 23 -73 24
-102 4 -12 -8 -43 -52 -69 -97 -55 -97 -108 -170 -176 -245 -63 -69 -220 -213
-233 -213 -5 0 -63 27 -128 60 -64 33 -127 60 -140 60 -16 0 -44 -27 -97 -92
-100 -123 -380 -409 -509 -521 -157 -135 -405 -316 -418 -304 -7 8 -72 472
-98 707 -60 549 -79 923 -80 1546 l0 522 57 83 c80 119 200 260 307 362 l92
87 112 -105 c282 -263 495 -393 708 -429 43 -7 43 -6 54 109 20 201 -68 513
-224 797 l-59 108 37 9 c203 54 583 119 756 130 11 0 74 -14 141 -33z m5806
-2606 c75 -67 127 -147 173 -267 21 -54 55 -124 76 -155 21 -31 61 -103 88
-160 78 -160 129 -208 221 -208 49 0 81 15 180 86 41 29 79 54 83 55 5 0 48
-42 96 -94 108 -119 223 -223 275 -249 31 -16 51 -19 93 -14 29 3 77 9 106 12
45 5 61 2 105 -20 87 -44 147 -34 259 42 51 35 136 82 146 82 2 0 1 -15 -2
-34 -5 -30 -14 -39 -71 -68 -36 -19 -122 -70 -190 -114 -132 -85 -327 -191
-413 -225 -28 -11 -76 -25 -105 -30 -65 -12 -97 -3 -206 59 -79 46 -146 62
-199 48 -13 -3 -53 -28 -88 -55 -124 -93 -253 -145 -364 -145 -89 0 -118 15
-215 108 -41 40 -125 112 -187 160 -62 47 -143 118 -181 157 -65 66 -71 70
-93 58 -36 -18 -165 -117 -234 -177 -87 -77 -109 -87 -159 -72 -86 26 -165 99
-234 216 -22 38 -59 87 -81 108 l-40 39 72 50 c40 27 134 113 210 190 l138
140 52 -23 c84 -36 94 -36 178 14 141 83 212 163 365 408 43 71 81 128 85 128
3 0 30 -23 61 -50z m-5632 -92 c477 -486 507 -513 601 -530 69 -12 101 -37
163 -126 25 -37 27 -44 14 -55 -78 -64 -188 -140 -235 -164 -53 -26 -67 -28
-168 -28 -97 1 -117 4 -167 27 -66 30 -135 77 -190 126 -21 19 -44 32 -51 29
-8 -3 -203 -149 -435 -325 -231 -176 -435 -325 -453 -331 -54 -19 -85 -13
-175 34 -48 25 -106 48 -129 52 -67 9 -188 -28 -371 -115 -200 -94 -315 -145
-319 -140 -4 5 -57 300 -53 302 2 1 43 29 92 61 265 174 588 469 834 761 48
57 91 104 97 104 5 0 53 -23 105 -50 202 -107 278 -140 364 -162 86 -21 90
-21 155 -5 36 10 77 17 91 17 14 0 77 -23 140 -51 287 -128 375 -153 566 -165
114 -8 144 -3 124 21 -9 10 -32 15 -74 15 -137 0 -356 50 -466 105 -101 51
-263 115 -291 115 -16 0 -56 -8 -90 -17 -56 -16 -64 -15 -137 2 -42 10 -103
29 -135 43 l-57 25 42 36 c148 124 269 263 353 407 90 152 87 153 255 -18z
m1039 -592 c12 -13 40 -67 61 -119 42 -104 88 -180 123 -199 12 -6 48 -15 80
-19 50 -6 65 -13 110 -53 75 -67 181 -138 315 -211 l117 -65 41 41 42 41 74
-45 c146 -89 330 -170 411 -182 32 -5 102 0 209 16 156 22 163 22 248 6 48 -9
116 -17 151 -17 56 0 75 5 153 46 73 38 109 49 204 65 63 11 133 27 156 38
116 51 403 316 565 521 46 58 87 106 91 108 26 10 89 -21 119 -58 18 -22 66
-66 106 -96 80 -60 103 -87 154 -177 63 -112 177 -204 273 -222 41 -8 98 17
138 60 24 26 151 128 218 174 l33 23 72 -69 c40 -38 113 -100 162 -138 50 -38
130 -107 178 -153 91 -87 141 -116 217 -127 98 -14 289 52 400 139 74 58 91
66 141 66 34 0 63 -11 129 -49 171 -99 238 -91 530 64 74 40 187 106 250 147
122 79 199 122 207 115 8 -8 -129 -796 -153 -879 -5 -16 -20 -18 -137 -18
-145 0 -810 22 -1397 45 -206 9 -593 18 -860 21 -425 5 -523 4 -795 -15 -474
-31 -564 -34 -780 -22 -465 25 -967 30 -2150 21 -818 -7 -1283 -14 -1460 -24
-731 -42 -1371 -24 -1624 44 -38 10 -40 12 -51 68 -6 31 -13 63 -15 69 -5 16
24 35 95 63 30 12 120 53 200 92 169 82 263 117 340 124 51 5 61 2 153 -45
111 -57 154 -63 222 -32 22 10 224 158 449 330 225 171 414 311 421 311 6 0
20 -10 31 -22 35 -40 166 -118 231 -138 79 -24 189 -26 262 -4 96 28 184 88
381 259 67 58 125 105 129 105 4 0 18 -11 30 -24z m2801 -362 c-108 -109 -240
-217 -307 -250 -32 -16 -95 -33 -165 -45 -92 -15 -130 -27 -203 -64 -104 -52
-146 -56 -297 -29 -87 16 -94 16 -254 -7 -161 -23 -166 -23 -232 -6 -68 18
-103 37 -67 37 10 0 94 36 186 80 212 102 249 111 372 85 159 -33 343 -21 507
32 41 13 178 76 304 139 127 63 232 114 235 114 3 0 -33 -39 -79 -86z m-5578
-853 c62 -11 176 -25 253 -32 207 -18 906 -16 1260 5 333 19 616 24 1694 31
437 2 770 1 765 -4 -16 -16 -170 -60 -474 -137 -605 -154 -759 -199 -801 -233
-49 -39 16 -61 186 -61 154 0 245 -9 781 -75 549 -68 674 -90 674 -120 0 -18
-36 -33 -175 -73 -240 -68 -456 -102 -827 -132 -139 -11 -298 -25 -353 -31
-214 -24 -503 -95 -556 -138 l-23 -18 25 -17 c44 -28 250 -38 654 -32 204 4
415 9 470 11 l100 6 -40 -33 c-114 -93 -265 -256 -332 -357 -2 -2 -47 -13
-100 -23 -423 -81 -1028 -164 -1518 -208 -422 -37 -539 -50 -685 -75 -276 -48
-316 -79 -135 -105 148 -20 585 -30 1421 -30 l831 0 -14 -72 c-9 -42 -15 -136
-15 -220 l-1 -148 -36 -6 c-119 -20 -403 -80 -503 -105 -220 -55 -313 -101
-306 -152 10 -69 312 -119 731 -121 l218 -1 47 -90 c26 -49 62 -112 81 -140
44 -64 171 -215 181 -215 4 0 -3 28 -17 61 -35 86 -71 234 -79 323 l-7 76 254
0 c147 0 321 -6 414 -15 88 -8 226 -18 308 -21 81 -3 147 -9 147 -13 0 -18
-51 -53 -115 -79 -112 -46 -114 -78 -4 -124 34 -14 78 -38 97 -53 44 -35 35
-45 -93 -105 -117 -55 -142 -78 -125 -110 19 -36 110 -69 303 -110 182 -39
256 -50 637 -90 183 -20 380 -53 404 -68 29 -18 -94 -25 -449 -27 -283 -2
-462 -9 -650 -24 -143 -11 -350 -25 -460 -31 -380 -20 -507 -45 -599 -115 -48
-36 -55 -56 -27 -84 50 -50 231 -72 821 -96 447 -18 495 -21 690 -45 85 -11
228 -27 317 -36 89 -9 186 -22 215 -28 l53 -13 -46 -21 c-26 -12 -113 -33
-194 -47 -151 -26 -172 -33 -194 -59 -18 -21 -6 -63 22 -77 12 -7 65 -16 117
-20 101 -8 170 -30 170 -54 0 -16 -64 -56 -123 -76 -47 -16 -65 -35 -49 -51 8
-8 29 -8 79 0 37 6 69 9 72 7 2 -3 -10 -23 -28 -46 -42 -52 -30 -72 23 -40 92
57 166 183 166 281 l0 49 73 22 c142 42 259 106 270 148 6 25 -24 66 -64 86
-52 28 -231 64 -440 90 -113 14 -230 32 -260 41 -64 19 -109 41 -109 53 0 30
237 72 515 91 449 30 597 48 735 90 81 24 110 44 110 75 0 31 -34 49 -142 75
-125 29 -570 81 -1030 120 -209 18 -338 38 -375 58 -10 6 10 19 68 43 131 55
132 78 2 140 -106 50 -102 54 80 70 249 22 519 68 610 104 16 7 17 4 12 -21
-23 -102 -49 -194 -70 -246 -13 -33 -21 -58 -16 -56 19 8 136 148 185 222 72
109 120 207 161 329 47 142 65 257 65 422 0 166 -18 280 -66 424 -19 57 -33
105 -32 106 2 1 127 10 278 19 524 32 999 79 1256 126 492 88 551 230 153 359
-240 78 -467 116 -1278 211 -234 28 -426 52 -427 53 -1 1 113 3 254 3 319 2
521 17 727 54 318 58 475 124 475 201 0 25 -46 77 -89 98 -215 110 -643 151
-2136 206 -231 9 -513 20 -627 25 -114 5 -264 7 -335 4 -219 -9 -128 19 450
136 216 43 433 89 482 101 79 19 122 22 345 24 140 2 361 11 490 21 309 25
1138 25 1745 0 717 -29 900 -35 1213 -42 l303 -7 -6 -31 c-24 -119 -145 -591
-200 -781 -177 -615 -371 -1133 -595 -1590 -216 -440 -470 -830 -751 -1152
-363 -419 -885 -955 -1279 -1314 -227 -207 -626 -537 -636 -526 -3 3 1 18 9
34 34 66 103 284 158 498 32 126 57 231 55 232 -2 2 -54 -86 -117 -196 -62
-110 -141 -240 -176 -288 -74 -105 -198 -233 -274 -286 l-56 -38 -74 40 c-41
22 -101 47 -134 56 -33 10 -61 18 -63 20 -1 1 -9 39 -17 85 -52 295 -179 618
-334 850 -90 135 -106 154 -119 146 -20 -12 -152 -216 -206 -317 -100 -190
-193 -460 -231 -670 l-17 -96 -61 -17 c-34 -10 -95 -35 -136 -57 l-74 -40 -41
27 c-163 107 -285 262 -476 602 -57 100 -104 181 -106 179 -4 -3 79 -334 113
-452 14 -49 45 -141 69 -203 24 -63 44 -116 44 -118 0 -17 -500 405 -730 616
-310 285 -907 904 -1200 1244 -451 524 -817 1189 -1104 2008 -171 487 -294
909 -396 1353 -27 121 -52 228 -54 238 -5 21 -12 21 126 -2z m4561 -11 c220 0
377 -4 372 -9 -6 -5 -191 -45 -412 -90 -502 -102 -624 -135 -640 -178 -4 -9 1
-22 13 -30 15 -12 46 -14 165 -10 80 4 239 2 355 -3 115 -5 396 -16 624 -25
1120 -41 1545 -69 1830 -121 157 -28 296 -78 330 -119 36 -43 -48 -98 -217
-141 -289 -73 -533 -97 -993 -97 -404 -1 -690 19 -1107 74 -94 13 -110 11
-100 -14 7 -20 457 -81 1437 -197 763 -89 973 -123 1210 -191 237 -69 330
-131 273 -181 -141 -124 -860 -214 -2234 -280 -238 -11 -258 -11 -280 5 -217
157 -369 222 -582 248 -297 36 -625 -72 -850 -280 l-49 -45 -620 -22 c-398
-15 -624 -26 -631 -33 -7 -7 -7 -14 -2 -20 11 -11 1999 57 2491 84 l102 6 0
-26 c0 -44 40 -74 137 -101 144 -41 196 -74 176 -113 -33 -61 -237 -133 -716
-251 -394 -97 -442 -106 -990 -175 -594 -76 -767 -106 -796 -142 -19 -22 1
-34 78 -49 68 -13 114 -16 763 -55 848 -50 1467 -107 1682 -155 72 -16 103
-38 77 -55 -48 -31 -216 -62 -449 -84 -203 -18 -260 -33 -260 -65 0 -25 25
-43 114 -84 44 -20 77 -38 75 -40 -2 -2 -35 -16 -74 -30 -77 -30 -105 -50
-105 -77 0 -46 114 -72 427 -99 231 -20 721 -71 868 -91 103 -13 213 -38 244
-54 l25 -13 -30 -14 c-69 -35 -276 -72 -494 -88 -659 -49 -782 -68 -829 -124
-22 -26 -5 -64 39 -86 62 -32 142 -49 325 -70 325 -39 495 -81 495 -125 0 -36
-90 -81 -266 -135 l-71 -21 -5 -78 c-3 -57 -11 -88 -28 -120 -14 -23 -26 -38
-28 -32 -2 6 -13 11 -24 11 -19 0 -19 0 1 26 12 15 21 35 21 45 0 45 -109 89
-220 89 -69 0 -115 19 -95 39 6 6 67 20 135 31 206 35 278 58 300 99 23 44
-30 64 -230 87 -74 8 -229 26 -345 39 -256 29 -287 31 -745 50 -583 24 -759
43 -784 84 -9 13 65 55 143 80 79 26 178 37 441 51 113 6 322 20 465 31 193
16 363 22 660 23 348 2 407 5 453 20 62 20 75 41 43 67 -40 33 -168 58 -459
89 -366 39 -449 51 -631 90 -176 38 -251 63 -258 85 -2 6 48 35 109 65 133 65
156 91 123 137 -12 16 -57 46 -110 72 l-89 44 62 22 c110 40 168 104 128 143
-12 13 -58 18 -228 28 -117 7 -258 18 -313 23 -134 14 -662 14 -882 0 -132 -9
-219 -9 -347 0 -268 19 -473 52 -491 81 -37 60 584 198 1415 315 906 127 901
126 1283 271 72 28 127 66 127 90 0 17 -44 40 -106 55 -37 9 -488 12 -1814 10
-1589 -2 -2229 5 -2248 23 -22 23 144 51 473 81 900 81 1317 139 2020 280 373
74 461 86 879 120 647 53 1066 122 1184 195 26 16 33 26 30 47 -4 35 -43 57
-143 83 -71 18 -111 20 -439 20 -199 0 -626 -7 -951 -16 -646 -17 -1449 -23
-1461 -11 -12 11 -2 16 87 42 182 52 320 72 734 105 385 30 641 73 879 145
180 54 226 84 187 119 -54 49 -163 70 -731 140 -541 67 -637 76 -809 76 -74 0
-132 2 -129 6 10 10 210 64 638 174 417 106 620 166 670 196 18 10 41 13 84 9
32 -3 230 -5 439 -5z m729 -1072 c43 -29 78 -56 78 -59 0 -8 -168 -45 -311
-69 -197 -31 -431 -57 -764 -85 -399 -33 -528 -49 -760 -96 -104 -21 -190 -37
-192 -35 -2 1 28 40 65 87 70 86 202 207 282 259 l45 29 320 9 c176 5 509 10
740 10 l420 2 77 -52z m99 26 c30 -9 60 -22 68 -29 11 -11 9 -16 -13 -30 -25
-17 -26 -16 -73 21 -26 21 -52 42 -57 46 -16 13 15 9 75 -8z m-646 -379 c108
-27 270 -102 348 -160 27 -20 47 -38 45 -40 -1 -2 -124 -8 -273 -14 -671 -28
-1004 -41 -1048 -41 l-49 0 44 36 c154 130 348 217 540 244 104 15 282 3 393
-25z m1048 -287 c61 -173 78 -270 78 -453 0 -224 -39 -392 -137 -587 -48 -95
-122 -213 -130 -205 -2 2 3 35 13 73 22 90 25 424 4 529 -46 231 -163 468
-308 626 -31 33 -54 61 -52 64 5 5 300 21 420 24 l86 1 26 -72z m-518 -33 l46
-54 -58 19 c-32 11 -83 27 -113 37 -47 15 -55 22 -58 45 -3 26 -1 27 45 30 58
4 78 -7 138 -77z m-330 -125 c89 -13 107 -19 99 -32 -9 -14 -48 -30 -256 -104
-207 -74 -320 -98 -728 -155 -157 -22 -361 -51 -454 -65 -93 -13 -171 -22
-174 -19 -15 14 78 232 139 327 l31 48 391 3 c216 1 502 3 637 4 135 2 277 -2
315 -7z m-1395 -6 c0 -3 -8 -18 -19 -32 -32 -47 -88 -164 -120 -257 -18 -49
-33 -90 -34 -92 -7 -7 -259 -44 -265 -39 -18 19 3 381 25 419 5 8 413 10 413
1z m1916 -147 c47 -93 100 -253 119 -361 13 -77 22 -366 11 -366 -2 0 -23 7
-47 16 -173 61 -661 116 -1544 174 -170 11 -374 25 -452 30 -78 6 -149 10
-159 10 -14 0 -16 7 -11 51 4 29 9 54 11 57 3 3 160 24 348 48 464 58 501 65
938 170 387 94 639 183 700 249 23 25 25 25 38 8 8 -10 29 -49 48 -86z m-2120
-418 c-3 -17 -6 -42 -6 -55 0 -23 -2 -24 -90 -24 -78 0 -91 2 -100 19 -22 42
-13 59 33 66 23 3 67 9 97 14 30 5 59 9 64 10 5 0 6 -13 2 -30z m-246 -23 c0
-8 3 -22 7 -32 6 -16 -1 -17 -98 -10 -57 4 -108 11 -112 16 -5 4 26 15 70 23
103 20 133 20 133 3z m244 -288 c4 -40 13 -102 21 -138 7 -36 12 -66 10 -68
-5 -6 -78 106 -124 189 -22 42 -38 79 -34 82 3 4 32 7 63 7 l57 0 7 -72z"/>
<path d="M4324 10523 c-66 -65 -145 -152 -176 -193 -159 -214 -248 -448 -267
-697 -29 -403 104 -760 391 -1051 117 -119 233 -203 383 -277 336 -165 685
-205 1042 -120 266 63 496 189 688 376 203 197 326 417 391 694 15 64 19 119
19 275 0 180 -3 204 -28 305 -46 180 -125 347 -238 498 -47 63 -241 261 -286
292 l-22 16 16 -38 c8 -21 30 -67 48 -103 177 -353 167 -798 -25 -1134 -270
-472 -816 -674 -1300 -480 -236 94 -449 293 -567 529 -98 195 -143 427 -122
641 16 177 47 283 135 471 29 62 50 113 46 113 -4 0 -61 -53 -128 -117z m-15
-118 c-253 -652 95 -1404 735 -1589 567 -165 1151 163 1349 755 85 256 73 616
-28 844 -14 32 -23 60 -21 62 8 8 140 -146 197 -230 106 -158 173 -325 205
-511 24 -138 15 -388 -19 -519 -102 -386 -366 -705 -732 -882 -237 -115 -477
-164 -730 -151 -759 41 -1346 623 -1347 1336 0 272 67 495 216 720 52 77 188
240 201 240 2 0 -10 -34 -26 -75z"/>
<path d="M1648 6287 c-20 -29 -62 -84 -93 -121 -54 -63 -57 -70 -45 -90 64
-98 115 -191 142 -258 l33 -79 14 33 c48 111 96 204 134 260 l43 65 -43 49
c-24 27 -65 78 -90 114 -26 36 -49 69 -53 73 -4 4 -23 -16 -42 -46z m110 -111
c26 -32 51 -65 56 -71 6 -9 -1 -29 -21 -61 -17 -27 -48 -82 -68 -121 -20 -40
-38 -73 -40 -73 -2 0 -14 24 -28 53 -13 28 -43 82 -65 120 -23 37 -42 70 -42
72 0 3 24 34 54 70 30 35 60 74 67 86 11 22 12 22 26 3 7 -10 35 -46 61 -78z"/>
<path d="M8956 6286 c-19 -28 -62 -82 -94 -121 l-59 -69 37 -56 c34 -49 98
-171 141 -269 l15 -34 19 49 c27 74 83 182 126 246 22 31 39 61 39 66 0 5 -10
17 -21 28 -12 10 -54 62 -94 116 l-73 96 -36 -52z m153 -160 c26 -24 26 -31 0
-67 -11 -16 -42 -70 -69 -121 l-48 -91 -37 74 c-21 41 -53 97 -71 126 -32 51
-32 51 -13 69 11 10 43 48 71 85 l52 67 46 -61 c26 -34 57 -71 69 -81z"/>
<path d="M2240 4838 c-24 -35 -66 -87 -94 -116 -47 -50 -49 -55 -36 -75 64
-99 114 -192 142 -258 17 -44 35 -76 38 -72 3 5 23 47 44 94 20 47 61 123 91
169 l53 84 -49 55 c-28 31 -69 84 -92 118 -23 34 -44 63 -48 63 -3 0 -25 -28
-49 -62z m60 -16 c0 -5 29 -43 64 -86 l64 -77 -34 -52 c-19 -29 -51 -84 -71
-124 l-36 -72 -27 58 c-15 32 -46 87 -69 123 l-42 66 68 86 c63 80 83 98 83
78z"/>
<path d="M8354 4852 c-17 -26 -59 -79 -92 -118 l-60 -71 45 -69 c48 -75 117
-213 128 -257 4 -15 10 -27 14 -27 3 0 23 41 45 91 21 49 63 128 92 176 47 75
53 88 41 102 -78 91 -126 152 -146 184 -12 20 -26 37 -29 37 -4 0 -21 -22 -38
-48z m109 -109 l66 -83 -47 -78 c-26 -42 -56 -96 -66 -120 -10 -23 -22 -42
-25 -42 -3 0 -19 28 -35 62 -17 33 -47 88 -68 120 l-39 60 38 41 c21 23 52 61
68 84 17 24 33 42 36 40 3 -1 36 -39 72 -84z"/>
<path d="M3424 3353 c-27 -38 -70 -91 -97 -120 l-49 -52 41 -60 c41 -60 118
-209 140 -273 l12 -33 24 57 c34 84 81 175 127 245 l40 63 -54 62 c-30 35 -73
89 -95 121 l-41 57 -48 -67z m165 -147 c26 -24 26 -31 -1 -69 -13 -18 -44 -72
-69 -121 l-47 -89 -46 89 c-25 49 -56 104 -69 123 l-23 34 69 88 70 88 47 -62
c26 -34 57 -71 69 -81z"/>
<path d="M7168 3367 c-20 -29 -61 -83 -92 -119 -31 -37 -56 -69 -56 -71 0 -3
16 -29 36 -58 40 -60 96 -166 129 -247 l22 -53 28 68 c35 85 88 184 131 245
l34 48 -56 62 c-31 35 -74 89 -96 121 -21 31 -40 57 -42 57 -2 0 -19 -24 -38
-53z m114 -113 l65 -80 -24 -35 c-14 -19 -45 -74 -70 -123 l-45 -89 -48 91
c-27 51 -59 106 -71 123 -15 21 -19 36 -13 44 56 75 130 161 135 156 4 -3 36
-42 71 -87z"/>
<path d="M4678 2428 c-19 -29 -61 -83 -92 -120 l-57 -66 44 -69 c50 -76 95
-165 122 -235 20 -55 30 -60 40 -21 10 40 91 199 136 266 l38 58 -64 76 c-36
42 -78 96 -93 120 -15 24 -30 43 -33 43 -3 0 -22 -24 -41 -52z m77 -61 c16
-23 47 -61 68 -84 l38 -41 -34 -54 c-19 -29 -51 -86 -71 -127 l-37 -73 -28 58
c-15 33 -47 89 -70 127 l-41 67 54 64 c30 36 59 74 66 85 15 29 21 27 55 -22z"/>
<path d="M5917 2425 c-20 -30 -62 -84 -93 -119 l-55 -66 42 -61 c42 -62 139
-254 139 -276 0 -7 5 -13 10 -13 6 0 10 6 10 13 0 22 97 213 139 276 l41 61
-59 70 c-32 39 -74 93 -92 120 -19 27 -36 49 -39 49 -3 0 -22 -24 -43 -54z
m61 -35 c6 -11 37 -49 67 -85 l55 -64 -34 -54 c-19 -30 -49 -84 -68 -121 -18
-36 -35 -66 -38 -66 -3 0 -20 30 -38 66 -19 37 -49 91 -68 121 l-34 54 55 64
c30 36 61 74 67 85 16 25 20 25 36 0z"/>
<path d="M5085 6084 c-93 -17 -175 -42 -175 -54 0 -16 36 -16 115 2 44 10 117
21 163 24 82 7 108 18 81 35 -20 12 -91 10 -184 -7z"/>
<path d="M6300 5704 c0 -3 34 -43 75 -90 42 -46 105 -129 141 -184 63 -96 84
-117 84 -85 0 68 -232 365 -285 365 -8 0 -15 -2 -15 -6z"/>
<path d="M1172 11191 c-56 -19 -101 -55 -134 -108 l-20 -33 23 -37 c73 -120
187 -244 289 -313 72 -49 161 -102 165 -98 7 7 -15 164 -30 216 -9 31 -34 90
-55 132 -49 97 -158 260 -173 260 -7 -1 -36 -9 -65 -19z m108 -122 c28 -44 69
-117 91 -162 38 -80 75 -207 60 -207 -41 0 -247 192 -315 292 l-38 57 22 30
c22 32 82 70 112 71 10 0 37 -32 68 -81z"/>
<path d="M9370 11118 c-74 -110 -132 -224 -155 -300 -15 -52 -37 -209 -30
-216 4 -4 93 49 167 99 84 57 195 172 257 267 l53 81 -21 35 c-33 53 -85 94
-143 111 -28 8 -55 15 -59 15 -4 0 -35 -41 -69 -92z m147 11 c23 -11 52 -34
63 -50 l21 -29 -41 -60 c-59 -87 -155 -186 -234 -241 -38 -27 -72 -49 -76 -49
-10 0 4 73 24 129 36 100 166 321 189 321 6 0 30 -9 54 -21z"/>
<path d="M5278 2093 c-90 -172 -156 -390 -183 -601 l-7 -52 49 22 c43 21 63
23 203 23 139 0 160 -2 203 -22 26 -12 47 -19 47 -15 0 4 -9 61 -20 127 -35
212 -76 343 -156 494 -79 151 -70 149 -136 24z m114 -100 c26 -54 56 -127 67
-163 26 -81 60 -236 61 -272 0 -27 -1 -28 -47 -20 -63 9 -204 9 -269 -1 l-52
-7 14 77 c23 125 72 281 121 386 25 53 49 97 53 97 4 0 27 -44 52 -97z"/>
<path d="M5275 1214 c-16 -3 -49 -12 -72 -20 l-43 -16 0 -131 c1 -259 51 -479
154 -676 l23 -44 39 69 c48 87 98 233 120 349 9 50 18 167 21 261 l6 171 -40
16 c-42 16 -157 28 -208 21z m169 -64 c25 -9 26 -13 26 -82 0 -112 -19 -284
-41 -383 -22 -94 -75 -235 -89 -235 -10 0 -42 77 -69 162 -32 106 -51 231 -58
385 l-6 143 24 9 c32 13 181 14 213 1z"/>
<path d="M4800 1104 c-41 -18 -120 -92 -120 -113 0 -7 15 -46 34 -85 46 -94
125 -173 222 -220 91 -45 124 -58 124 -48 0 4 -13 42 -29 84 -40 102 -61 210
-61 306 0 74 -2 80 -22 86 -40 10 -112 6 -148 -10z m122 -139 c3 -55 15 -129
27 -165 11 -35 18 -66 16 -68 -8 -8 -104 60 -139 98 -36 40 -86 129 -86 153 0
34 89 88 140 84 l35 -2 7 -100z"/>
<path d="M5729 1113 c-13 -3 -17 -25 -22 -116 -5 -112 -29 -210 -77 -323 -11
-24 -17 -44 -13 -44 3 0 48 20 99 44 138 66 229 160 270 280 l16 48 -38 39
c-52 53 -109 79 -170 78 -27 -1 -56 -3 -65 -6z m162 -77 c22 -15 43 -34 46
-42 7 -20 -39 -110 -81 -161 -35 -41 -132 -110 -142 -101 -2 3 0 18 6 34 21
55 40 166 40 236 l0 71 45 -5 c25 -3 63 -18 86 -32z"/>
</g>
</svg>
